<svg height="512" viewBox="0 0 512 512" width="512" xmlns="http://www.w3.org/2000/svg"><g id="filled_outline" data-name="filled outline"><path d="m305.041 64.559-49.041 49.041-49.041-49.041a23.758 23.758 0 0 1 -6.959-16.8 23.759 23.759 0 0 1 23.759-23.759 23.758 23.758 0 0 1 16.8 6.959l15.441 15.441 15.441-15.441a23.758 23.758 0 0 1 16.8-6.959 23.759 23.759 0 0 1 23.759 23.759 23.758 23.758 0 0 1 -6.959 16.8z" fill="#f16465"/><path d="m174.857 309.3-30.757-8.815-18.733-33.772a90 90 0 0 1 1.491-89.9l37.142-62.026 92.289 26.436-1.329 72.291a90 90 0 0 1 -46.33 77.05z" fill="#eaeae8"/><path d="m255.21 200-.25 13.51a90 90 0 0 1 -46.33 77.05l-33.77 18.74-30.77-8.81-18.73-33.78a89.97 89.97 0 0 1 -1.83-83.83l4.47 1.12a311.689 311.689 0 0 0 98.6 16z" fill="#eaeae8"/><path d="m142.5 422.266 32.357-112.966-30.757-8.815-32.53 113.545a28.944 28.944 0 0 1 -22.51 20.482 28.945 28.945 0 0 0 -22.511 20.481l-1.683 5.876 94.717 27.131 1.518-5.3a28.944 28.944 0 0 0 -8.894-29.865l-.815-.705a28.942 28.942 0 0 1 -8.892-29.864z" fill="#cbcbcb"/><path d="m338.009 309.3 30.763-8.812 18.728-33.775a90 90 0 0 0 -1.49-89.9l-37.148-62.031-92.288 26.436 1.328 72.291a90 90 0 0 0 46.33 77.05z" fill="#eaeae8"/><path d="m387.5 266.71-18.73 33.78-30.76 8.81-33.77-18.74a89.978 89.978 0 0 1 -46.33-77.05l-.25-13.51h27.74a311.689 311.689 0 0 0 98.6-16l5.04-1.68a89.945 89.945 0 0 1 -1.54 84.39z" fill="#eaeae8"/><path d="m370.368 422.266-32.359-112.966 30.763-8.812 32.528 113.542a28.944 28.944 0 0 0 22.511 20.482 28.943 28.943 0 0 1 22.51 20.481l1.679 5.876-94.717 27.131-1.518-5.3a28.944 28.944 0 0 1 8.894-29.865l.815-.705a28.942 28.942 0 0 0 8.894-29.864z" fill="#eaeae8"/><path d="m255.21 200-.25 13.51a90 90 0 0 1 -46.33 77.05l-33.77 18.74-30.77-8.81-18.73-33.78a89.97 89.97 0 0 1 -1.83-83.83l4.47 1.12a311.689 311.689 0 0 0 98.6 16z" fill="#d32b39"/><path d="m387.5 266.71-18.73 33.78-30.76 8.81-33.77-18.74a89.978 89.978 0 0 1 -46.33-77.05l-.25-13.51h27.74a311.689 311.689 0 0 0 98.6-16l5.04-1.68a89.945 89.945 0 0 1 -1.54 84.39z" fill="#d32b39"/><g fill="#fbb540"><path d="m170.533 95.557a8 8 0 0 1 -7.518-10.735l5.466-15.037a8 8 0 0 1 15.038 5.466l-5.467 15.038a8 8 0 0 1 -7.519 5.268z"/><path d="m145.246 94.874a7.974 7.974 0 0 1 -5.809-2.5l-12.3-12.985a8 8 0 0 1 11.615-11.005l12.3 12.986a8 8 0 0 1 -5.8 13.5z"/><path d="m119.264 119.483a8 8 0 0 1 -.908-15.948l17.77-2.053a8 8 0 1 1 1.836 15.895l-17.77 2.052a8.1 8.1 0 0 1 -.928.054z"/><path d="m340.741 95.557a8 8 0 0 1 -7.519-5.268l-5.467-15.038a8 8 0 0 1 15.037-5.466l5.467 15.037a8 8 0 0 1 -7.518 10.735z"/><path d="m366.028 94.874a8 8 0 0 1 -5.805-13.5l12.3-12.986a8 8 0 0 1 11.615 11.005l-12.3 12.985a7.975 7.975 0 0 1 -5.81 2.496z"/><path d="m392.01 119.483a8.1 8.1 0 0 1 -.928-.054l-17.77-2.052a8 8 0 0 1 1.835-15.895l17.771 2.053a8 8 0 0 1 -.908 15.948z"/></g><path d="m176.008 280a8 8 0 0 1 -4.124-14.861l8-4.8a8 8 0 0 1 8.232 13.72l-8 4.8a7.966 7.966 0 0 1 -4.108 1.141z" fill="#ee5e5b"/><path d="m202.288 264.233a8 8 0 0 1 -4.123-14.861 20.363 20.363 0 0 0 9.835-17.372 8 8 0 0 1 16 0 36.443 36.443 0 0 1 -17.6 31.092 7.964 7.964 0 0 1 -4.112 1.141z" fill="#ee5e5b"/><path d="m348.29 279.217a8 8 0 0 1 -6.932-11.982l4.642-8.093a8 8 0 0 1 13.879 7.961l-4.642 8.093a8 8 0 0 1 -6.947 4.021z" fill="#ee5e5b"/><path d="m363.539 252.632a8 8 0 0 1 -6.932-11.982 20.362 20.362 0 0 0 .112-19.962 8 8 0 1 1 13.967-7.806 36.442 36.442 0 0 1 -.2 35.729 8 8 0 0 1 -6.947 4.021z" fill="#ee5e5b"/><path d="m256 121.6a8 8 0 0 0 5.657-2.343l49.043-49.041a31.759 31.759 0 1 0 -44.915-44.916l-9.785 9.786-9.784-9.786a31.759 31.759 0 1 0 -44.916 44.915l49.041 49.042a8 8 0 0 0 5.659 2.343zm-48-73.841a15.759 15.759 0 0 1 26.9-11.143l15.441 15.441a8 8 0 0 0 11.314 0l15.445-15.441a15.758 15.758 0 1 1 22.284 22.284l-43.384 43.386-43.384-43.386a15.651 15.651 0 0 1 -4.616-11.141z"/><path d="m87.59 426.648a36.742 36.742 0 0 0 -28.731 26.143l-1.683 5.875a8 8 0 0 0 5.487 9.894l94.717 27.131a7.992 7.992 0 0 0 9.893-5.488l1.519-5.3a37.062 37.062 0 0 0 -11.351-38.118l-.816-.707a21.009 21.009 0 0 1 -6.436-21.61l31.447-109.783 30.874-17.125a98.238 98.238 0 0 0 43.923-50.621 98.238 98.238 0 0 0 43.923 50.621l30.874 17.125 31.448 109.783a21.014 21.014 0 0 1 -6.436 21.612l-.815.7a37.061 37.061 0 0 0 -11.352 38.12l1.518 5.3a7.992 7.992 0 0 0 9.893 5.488l94.714-27.128a8 8 0 0 0 5.487-9.894l-1.682-5.875a36.743 36.743 0 0 0 -28.732-26.143 20.83 20.83 0 0 1 -16.289-14.821l-31.609-110.359 17.125-30.875a98.288 98.288 0 0 0 -1.623-97.885l-37.148-62.031a8 8 0 0 0 -9.066-3.581l-90.23 25.846-90.233-25.842a8 8 0 0 0 -9.067 3.581l-37.148 62.031a98.288 98.288 0 0 0 -1.623 97.885l17.125 30.875-31.608 110.355a20.83 20.83 0 0 1 -16.289 14.821zm306.015-10.415a36.743 36.743 0 0 0 28.732 26.142 20.817 20.817 0 0 1 15.689 13.025l-79.111 22.661a21.023 21.023 0 0 1 6.977-19.178l.815-.7a37.066 37.066 0 0 0 11.353-38.119l-30.16-105.279 15.382-4.406zm-13.1-153.4-17.125 30.875-24.392 6.987-30.874-17.126a82.24 82.24 0 0 1 -42.213-70.2l-.1-5.367h19.6a319.178 319.178 0 0 0 99.336-15.834 82.278 82.278 0 0 1 -4.229 70.664zm-35.345-138.663 32.1 53.6a303.189 303.189 0 0 1 -91.86 14.23h-19.888l-.823-44.779zm-177.454 0 80.471 23.051-.823 44.779h-20.754a303.2 303.2 0 0 1 -91.127-14zm-35.348 138.662a82.28 82.28 0 0 1 -4.333-70.419 319.179 319.179 0 0 0 98.575 15.587h20.465l-.1 5.367a82.241 82.241 0 0 1 -42.212 70.2l-30.875 17.126-24.392-6.987zm-13.1 153.4 30.321-105.854 15.382 4.406-30.154 105.278a37.063 37.063 0 0 0 11.351 38.119l.817.707a21.025 21.025 0 0 1 6.977 19.177l-79.112-22.665a20.817 20.817 0 0 1 15.689-13.029 36.742 36.742 0 0 0 28.732-26.138z"/><path d="m167.8 95.074a7.995 7.995 0 0 0 10.252-4.785l5.467-15.038a8 8 0 0 0 -15.038-5.466l-5.466 15.037a8 8 0 0 0 4.785 10.252z"/><path d="m145.246 94.874a8 8 0 0 0 5.8-13.5l-12.3-12.986a8 8 0 0 0 -11.615 11.005l12.3 12.985a7.974 7.974 0 0 0 5.815 2.496z"/><path d="m111.327 112.4a8 8 0 0 0 7.937 7.083 8.1 8.1 0 0 0 .928-.054l17.77-2.052a8 8 0 1 0 -1.836-15.895l-17.77 2.053a8 8 0 0 0 -7.029 8.865z"/><path d="m340.741 95.557a8 8 0 0 0 7.518-10.735l-5.467-15.037a8 8 0 0 0 -15.037 5.466l5.467 15.038a8 8 0 0 0 7.519 5.268z"/><path d="m372.526 68.386-12.3 12.986a8 8 0 1 0 11.614 11l12.3-12.985a8 8 0 0 0 -11.615-11.005z"/><path d="m366.282 108.512a8 8 0 0 0 7.03 8.865l17.77 2.052a8.1 8.1 0 0 0 .928.054 8 8 0 0 0 .908-15.948l-17.771-2.053a8 8 0 0 0 -8.865 7.03z"/><path d="m176.008 280a7.966 7.966 0 0 0 4.108-1.141l8-4.8a8 8 0 0 0 -8.232-13.72l-8 4.8a8 8 0 0 0 4.124 14.861z"/><path d="m202.288 264.233a7.964 7.964 0 0 0 4.108-1.141 36.443 36.443 0 0 0 17.604-31.092 8 8 0 0 0 -16 0 20.363 20.363 0 0 1 -9.835 17.372 8 8 0 0 0 4.123 14.861z"/><path d="m344.317 278.155a8 8 0 0 0 10.92-2.959l4.642-8.093a8 8 0 0 0 -13.879-7.961l-4.642 8.093a8 8 0 0 0 2.959 10.92z"/><path d="m359.566 251.57a8 8 0 0 0 10.92-2.959 36.442 36.442 0 0 0 .2-35.729 8 8 0 1 0 -13.967 7.806 20.362 20.362 0 0 1 -.112 19.962 8 8 0 0 0 2.959 10.92z"/></g></svg>